<?xml version="1.0" standalone="no"?>
<!DOCTYPE svg PUBLIC "-//W3C//DTD SVG 20010904//EN"
 "http://www.w3.org/TR/2001/REC-SVG-20010904/DTD/svg10.dtd">
<svg version="1.0" xmlns="http://www.w3.org/2000/svg"
 width="512.000000pt" height="512.000000pt" viewBox="0 0 512.000000 512.000000"
 preserveAspectRatio="xMidYMid meet">

<g transform="translate(0.000000,512.000000) scale(0.100000,-0.100000)"
fill="#000000" stroke="none">
<path d="M691 4895 c-103 -19 -208 -73 -289 -150 -77 -72 -122 -142 -160 -247
l-27 -73 0 -890 c0 -978 -2 -937 63 -1075 48 -103 157 -212 262 -264 133 -65
155 -67 949 -64 l705 3 36 95 c77 205 187 376 340 529 329 330 788 488 1240
426 156 -21 287 -59 448 -132 11 -4 12 121 9 678 -3 754 -1 720 -68 859 -46
93 -160 205 -259 254 -139 68 -73 65 -1705 65 -1185 -1 -1484 -3 -1544 -14z
m1526 -754 c698 -349 726 -365 753 -436 30 -80 3 -185 -62 -240 -18 -15 -331
-176 -695 -359 -655 -327 -664 -331 -723 -330 -82 1 -144 39 -182 113 l-28 53
0 678 c0 479 3 687 11 711 19 56 59 100 113 125 99 46 66 59 813 -315z"/>
<path d="M1710 3630 c0 -159 3 -290 8 -289 4 0 135 65 292 143 l285 144 -293
146 -292 146 0 -290z"/>
<path d="M3493 2980 c-489 -52 -911 -384 -1077 -848 -94 -264 -94 -573 1 -846
63 -181 148 -319 283 -460 247 -258 568 -396 924 -396 207 0 386 40 557 125
l86 42 129 -148 c71 -81 133 -148 137 -148 8 -1 317 269 317 276 0 2 -54 66
-121 141 -66 75 -123 142 -125 148 -3 6 20 44 51 85 69 92 144 236 183 354 83
249 83 554 1 800 -162 484 -583 823 -1090 875 -111 11 -148 11 -256 0z m303
-439 c415 -86 706 -463 680 -881 -7 -119 -28 -202 -77 -308 -127 -275 -382
-459 -681 -492 -256 -29 -505 59 -692 244 -165 163 -249 367 -249 606 1 129
17 212 64 325 156 375 558 588 955 506z"/>
</g>
</svg>
