<?xml version="1.0" standalone="no"?>
<!DOCTYPE svg PUBLIC "-//W3C//DTD SVG 20010904//EN"
 "http://www.w3.org/TR/2001/REC-SVG-20010904/DTD/svg10.dtd">
<svg version="1.0" xmlns="http://www.w3.org/2000/svg"
 width="512.000000pt" height="512.000000pt" viewBox="0 0 512.000000 512.000000"
 preserveAspectRatio="xMidYMid meet">

<g transform="translate(0.000000,512.000000) scale(0.100000,-0.100000)"
fill="#000000" stroke="none">
<path d="M1375 4946 c-67 -29 -105 -106 -91 -181 9 -47 59 -102 104 -115 25
-8 401 -10 1194 -8 1150 3 1157 3 1184 24 53 39 69 71 69 134 0 63 -16 95 -69
134 -27 21 -33 21 -1194 23 -955 2 -1173 0 -1197 -11z"/>
<path d="M895 4306 c-67 -29 -105 -106 -91 -181 9 -47 59 -102 104 -115 26 -8
545 -10 1674 -8 1635 3 1637 3 1664 24 53 39 69 71 69 134 0 63 -16 95 -69
134 -27 21 -28 21 -1674 23 -1354 2 -1652 0 -1677 -11z"/>
<path d="M405 3671 c-90 -22 -172 -90 -215 -176 l-25 -50 0 -1525 0 -1525 23
-45 c35 -72 75 -114 144 -151 l63 -34 2165 0 2165 0 51 27 c76 40 107 70 145
140 l34 63 0 1525 0 1525 -34 63 c-37 69 -79 109 -151 144 l-45 23 -2145 2
c-1180 0 -2158 -2 -2175 -6z m2386 -1206 c360 -224 668 -422 686 -440 56 -59
56 -146 0 -207 -18 -21 -308 -208 -687 -444 l-655 -409 -57 0 c-61 0 -94 17
-132 69 -21 27 -21 37 -24 859 -2 458 0 846 3 864 7 40 49 91 90 109 16 8 50
13 76 11 41 -3 123 -52 700 -412z"/>
</g>
</svg>
